<svg id="LandIcon" fill="#E8D431" enable-background="new 0 0 512 512" height="512" viewBox="0 0 512 512" width="512" xmlns="http://www.w3.org/2000/svg">
    <g>
        <path d="m498.35 305.659h-310.247v-55.122h12.216c14.065 0 25.508-11.443 25.508-25.508v-29.23c0-14.065-11.443-25.507-25.508-25.507h-12.216v-28.78h4.439c6.892 0 12.499-5.607 12.499-12.499 0-19.39-15.775-35.165-35.165-35.165h-78.138c-19.39 0-35.164 15.775-35.164 35.165 0 6.892 5.607 12.499 12.499 12.499h4.439v28.78h-12.216c-14.065 0-25.508 11.443-25.508 25.507v29.23c0 14.065 11.443 25.508 25.508 25.508h12.216v55.122h-61.013c-6.892 0-12.499 5.607-12.499 12.499v87.495c0 6.892 5.607 12.499 12.499 12.499h485.851c6.892 0 12.499-5.607 12.499-12.499v-87.495c.001-6.892-5.606-12.499-12.499-12.499zm-325.246-135.368h-16.392v-28.78h16.392zm-53.202 0v-28.78h21.811v28.78zm-28.164-61.444h78.138c10.273 0 18.776 7.721 20.011 17.666h-118.159c1.234-9.945 9.737-17.666 20.01-17.666zm-3.227 32.664h16.391v28.78h-16.391zm-37.724 83.518v-29.23c0-5.794 4.714-10.508 10.509-10.508h139.023c5.795 0 10.509 4.714 10.509 10.508v29.23c0 5.795-4.714 10.509-10.509 10.509h-139.023c-5.795-.001-10.509-4.715-10.509-10.509zm-35.788 95.629h74.952c4.142 0 7.5-3.358 7.5-7.5s-3.358-7.5-7.5-7.5h-1.44v-55.122h84.593v55.122h-47.779c-4.142 0-7.5 3.358-7.5 7.5s3.358 7.5 7.5 7.5h370.525v18.374h-70.386c-4.142 0-7.5 3.358-7.5 7.5s3.357 7.5 7.5 7.5h8.845v49.122h-147.239v-49.122h102.49c4.142 0 7.5-3.358 7.5-7.5s-3.357-7.5-7.5-7.5h-163.165c-8.546 0-15.499 6.953-15.499 15.499v48.622h-195.897zm210.896 33.873c0-.276.224-.5.5-.5h45.675v49.122h-46.175zm269.955 48.622h-46.541v-49.122h46.541z"/>
        <path d="m257.438 210.042 8.2 4.995c26.211 15.968 56.288 24.408 86.98 24.408h115.69c5.51 0 11.062-1.232 16.056-3.563l20.115-9.391c4.639-2.167 7.522-6.694 7.522-11.816s-2.883-9.649-7.522-11.816c-.001 0-.001 0-.001 0l-20.114-9.391c-4.994-2.331-10.545-3.563-16.056-3.563h-41.535l-71.175-79.966c-2.495-2.805-6.079-4.413-9.833-4.413h-18.225c-2.996 0-5.835 1.447-7.595 3.87-1.761 2.423-2.259 5.57-1.334 8.416l23.402 72.093h-19.241l-21.971-26.299c-2.328-2.787-5.746-4.385-9.377-4.385h-15.255c-3.003 0-5.845 1.453-7.606 3.886-1.76 2.432-2.249 5.588-1.31 8.437l6.043 18.362h-10.206c-4.925 0-9.126 3.185-10.457 7.927-1.332 4.739.6 9.646 4.805 12.209zm26.22-5.138c2.405 0 4.665-1.154 6.076-3.103 1.41-1.949 1.8-4.456 1.048-6.741l-6.859-20.841h6.201l23.386 27.994c1.425 1.705 3.533 2.691 5.756 2.691h33.067c2.4 0 4.656-1.149 6.067-3.091s1.807-4.441 1.066-6.724l-24.204-74.564h9.678l72.865 81.866c1.424 1.599 3.462 2.514 5.602 2.514h44.9c3.333 0 6.69.745 9.71 2.155l16.313 7.616-16.313 7.616c-3.02 1.41-6.378 2.155-9.71 2.155h-115.69c-26.169 0-51.85-6.742-74.605-19.542h5.646z"/>
    </g>
</svg>