<svg id="Capa_1" enable-background="new 0 0 512 512" height="512" viewBox="0 0 512 512" width="512" xmlns="http://www.w3.org/2000/svg"><g><path d="m488.401 482h-15.001v-322.058c0-5.491-4.451-9.942-9.942-9.942h-27.585c-5.491 0-9.942 4.451-9.942 9.942v322.058h-30v-201.058c0-5.491-4.451-9.942-9.942-9.942h-27.575c-5.491 0-9.942 4.451-9.942 9.942v201.058h-30v-117.038c0-5.491-4.451-9.942-9.942-9.942h-27.585c-5.491 0-9.942 4.451-9.942 9.942v117.038h-30v-202.058c0-5.491-4.451-9.942-9.942-9.942h-27.585c-5.491 0-9.942 4.451-9.942 9.942v202.058h-30v-117.038c0-5.491-4.451-9.942-9.942-9.942h-27.575c-5.491 0-9.942 4.451-9.942 9.942v117.038h-30v-40.518c0-5.491-4.451-9.942-9.942-9.942h-37.533l-.001-341.54c0-8.284-6.716-15-15-15s-15 6.716-15 15v407c0 8.284 6.716 15 15 15h464.802c8.284 0 15-6.716 15-15s-6.716-15-15-15z"/><path d="m93.682 219.825 91.319-91.319 87.343 69.485c5.97 4.75 14.554 4.262 19.945-1.132l145.646-145.646v12.85c0 8.284 6.716 15 15 15s15-6.716 15-15v-49.063c0-8.268-6.731-15-15-15h-49.063c-8.284 0-15 6.716-15 15s6.716 15 15 15h12.85l-136.178 136.178-87.343-69.486c-5.97-4.749-14.552-4.261-19.945 1.132l-100.787 100.788c-5.858 5.858-5.858 15.355 0 21.213 5.857 5.857 15.356 5.858 21.213 0z"/></g></svg>