<?xml version="1.0" encoding="iso-8859-1"?>
<!-- Generator: Adobe Illustrator 19.0.0, SVG Export Plug-In . SVG Version: 6.00 Build 0)  -->
<svg version="1.1" id="Capa_1" xmlns="http://www.w3.org/2000/svg" xmlns:xlink="http://www.w3.org/1999/xlink" x="0px" y="0px"
	 viewBox="0 0 437.105 437.105" style="enable-background:new 0 0 437.105 437.105;" xml:space="preserve">
<path d="M58.552,437.105h320v-72c0-26.51-21.49-48-48-48h-72l-40,40l-40-40h-72c-26.51,0-48,21.49-48,48V437.105z"/>
<g>
	<path style="fill:#F2DBC0;" d="M258.552,317.105v-57.68l0,0c-2.836,1.446-5.749,2.733-8.728,3.856
		c-0.432,0.168-0.864,0.32-1.304,0.48c-2.549,0.928-5.152,1.728-7.808,2.4c-0.72,0.192-1.432,0.384-2.152,0.56
		c-2.472,0.576-4.992,1.024-7.536,1.384c-0.8,0.12-1.6,0.28-2.4,0.376c-6.658,0.811-13.39,0.811-20.048,0
		c-0.8-0.096-1.6-0.256-2.4-0.376c-2.544-0.36-5.064-0.8-7.536-1.384c-0.72-0.176-1.432-0.368-2.152-0.56
		c-2.667-0.688-5.269-1.488-7.808-2.4c-0.44-0.16-0.872-0.312-1.304-0.48c-3.011-1.119-5.957-2.407-8.824-3.856l0,0v57.68l40,40
		L258.552,317.105z"/>
	<path style="fill:#F2DBC0;" d="M318.552,133.105h-12l-15.2-57.72c-7.265-18.165-27.88-27.002-46.045-19.737
		c-2.632,1.053-5.128,2.417-7.435,4.065c-11.667,8.336-27.209,8.816-39.368,1.216l-3.496-2.184
		c-16.59-10.37-38.445-5.327-48.815,11.263c-1.833,2.933-3.227,6.119-4.137,9.457l-11.504,53.64h-12c-11.046,0-20,8.954-20,20
		s8.954,20,20,20h12v8c0,2.816,0.16,5.6,0.424,8.344l22.88,18.728c37.713,30.572,91.679,30.572,129.392,0l22.88-18.728
		c0.264-2.744,0.424-5.528,0.424-8.344v-8h12c11.046,0,20-8.954,20-20S329.598,133.105,318.552,133.105z"/>
</g>
<path style="fill:#4C3D24;" d="M194.968,58.745l3.496,2.184c12.159,7.6,27.701,7.12,39.368-1.216
	c15.908-11.388,38.036-7.724,49.424,8.184c1.662,2.322,3.037,4.836,4.096,7.488l15.2,57.72l-3.336-79.808
	c-5.474-34.472-37.858-57.98-72.33-52.506c-5.142,0.817-10.163,2.265-14.95,4.314l-37.384,16c-30.928,0-56,25.072-56,56l8,56
	l11.464-53.6c5.128-18.88,24.59-30.029,43.47-24.901C188.833,55.513,192.028,56.908,194.968,58.745z"/>
<g>
	<path style="fill:#30271F;" d="M178.552,171.105c-7.732,0-14-6.268-14-14s6.268-14,14-14s14,6.268,14,14
		C192.544,164.833,186.281,171.096,178.552,171.105z M178.552,155.105c-1.105,0-2,0.895-2,2c0,2.2,4,2.2,4,0
		C180.552,156,179.657,155.105,178.552,155.105z"/>
	<path style="fill:#30271F;" d="M258.552,171.105c-7.732,0-14-6.268-14-14s6.268-14,14-14c7.732,0,14,6.268,14,14
		C272.544,164.833,266.281,171.096,258.552,171.105z M258.552,155.105c-1.105,0-2,0.895-2,2c0,2.2,4,2.2,4,0
		C260.552,156,259.657,155.105,258.552,155.105z"/>
</g>
<path style="fill:#DBC6AE;" d="M258.552,259.425L258.552,259.425c-2.836,1.446-5.749,2.733-8.728,3.856
	c-0.432,0.168-0.864,0.32-1.304,0.48c-2.549,0.928-5.152,1.728-7.808,2.4c-0.72,0.192-1.432,0.384-2.152,0.56
	c-2.472,0.576-4.992,1.024-7.536,1.384c-0.8,0.12-1.6,0.28-2.4,0.376c-6.658,0.811-13.39,0.811-20.048,0
	c-0.8-0.096-1.6-0.256-2.4-0.376c-2.544-0.36-5.064-0.8-7.536-1.384c-0.72-0.176-1.432-0.368-2.152-0.56
	c-2.667-0.688-5.269-1.488-7.808-2.4c-0.44-0.16-0.872-0.312-1.304-0.48c-3.011-1.119-5.957-2.407-8.824-3.856l0,0v10.136l0,0
	c2.837,1.445,5.751,2.735,8.728,3.864l1.304,0.472c2.544,0.936,5.152,1.728,7.808,2.4c0.72,0.184,1.432,0.384,2.152,0.552
	c2.472,0.584,4.992,1.024,7.536,1.392c0.8,0.112,1.6,0.272,2.4,0.368c6.658,0.811,13.39,0.811,20.048,0
	c0.8-0.096,1.6-0.256,2.4-0.368c2.544-0.368,5.064-0.8,7.536-1.392c0.72-0.168,1.432-0.368,2.152-0.552
	c2.656-0.696,5.264-1.488,7.808-2.4l1.304-0.472c3.01-1.126,5.956-2.416,8.824-3.864l0,0V259.425z"/>
<path style="fill:#4C3D24;" d="M283.248,208.177c-5.002,4.016-10.379,7.542-16.056,10.528c0.574-3.409-1.134-6.795-4.216-8.36
	l-40.848-20.424c-2.251-1.125-4.901-1.125-7.152,0l-40.848,20.424c-3.082,1.565-4.79,4.951-4.216,8.36
	c-5.678-2.994-11.055-6.528-16.056-10.552l-22.88-18.728c2.851,29.932,20.795,56.333,47.576,70c2.839,1.439,5.752,2.726,8.728,3.856
	c0.432,0.168,0.864,0.32,1.304,0.48c2.544,0.928,5.152,1.72,7.808,2.4c0.72,0.192,1.432,0.392,2.152,0.56
	c2.472,0.576,4.992,1.016,7.536,1.384c0.8,0.12,1.6,0.28,2.4,0.376c6.658,0.811,13.39,0.811,20.048,0c0.8-0.096,1.6-0.256,2.4-0.376
	c2.544-0.368,5.064-0.8,7.536-1.384c0.72-0.168,1.432-0.368,2.152-0.56c2.656-0.696,5.264-1.488,7.808-2.4
	c0.44-0.16,0.872-0.312,1.304-0.48c3.008-1.126,5.954-2.414,8.824-3.856c26.777-13.661,44.723-40.052,47.584-69.976L283.248,208.177
	z M182,224.305l32.976-16.488c2.251-1.125,4.901-1.125,7.152,0l32.976,16.488C231.572,233.329,205.533,233.329,182,224.305z"/>
<g>
</g>
<g>
</g>
<g>
</g>
<g>
</g>
<g>
</g>
<g>
</g>
<g>
</g>
<g>
</g>
<g>
</g>
<g>
</g>
<g>
</g>
<g>
</g>
<g>
</g>
<g>
</g>
<g>
</g>
</svg>
