<svg id="Layer_1" enable-background="new 0 0 480.003 480.003" height="512" viewBox="0 0 480.003 480.003" width="512" xmlns="http://www.w3.org/2000/svg"><g fill="#cbe3fa"><path d="m312.134 263.123c-7.07 0-10.706-8.609-5.656-13.658 36.741-36.732 36.745-96.189 0-132.925-36.731-36.74-96.187-36.75-132.926-.001-24.788 24.779-33.711 60.984-23.289 94.487 1.312 4.219-1.044 8.703-5.263 10.016-4.219 1.31-8.703-1.044-10.016-5.263-12.193-39.199-1.75-81.561 27.253-110.554 42.981-42.993 112.563-42.999 155.554.001 42.993 42.983 42.999 112.563-.001 155.554-1.562 1.562-3.609 2.343-5.656 2.343z"/><path d="m167.893 263.123c-2.039 0-4.078-.774-5.638-2.324-1.505-1.495-2.989-3.063-4.537-4.794-2.944-3.294-2.662-8.351.633-11.296 3.293-2.945 8.351-2.662 11.296.633 1.334 1.493 2.605 2.836 3.883 4.106 5.08 5.044 1.441 13.675-5.637 13.675z"/><path d="m356.204 308.366c1.182 6.965 10.29 9.136 14.425 3.273 1.155-1.637 2.408-3.334 3.832-5.187 2.691-3.503 2.034-8.526-1.471-11.218-3.504-2.692-8.526-2.034-11.218 1.471-1.558 2.028-2.938 3.896-4.219 5.712-1.268 1.798-1.69 3.939-1.349 5.949z"/><path d="m116.273 314.743c-2.047 0-4.094-.781-5.656-2.343-34.568-34.563-53.606-80.518-53.606-129.397 0-101.124 81.852-183.003 183.003-183.003 92.442 0 169.718 68.617 181.475 159.367 5.063 39.076-2.757 79.39-22.018 113.518-2.171 3.848-7.052 5.207-10.899 3.035-3.848-2.171-5.207-7.051-3.035-10.899 36.679-64.99 25.396-147.275-27.439-200.101-65.262-65.27-170.895-65.282-236.167 0-65.27 65.261-65.281 170.894-.001 236.167 5.056 5.054 1.406 13.656-5.657 13.656z"/></g><path d="m352.014 464.002h-4.839c-13.555-29.867-25.912-60.491-36.728-91.124-8.885-25.094-18.525-48.959-35.137-119.811-2.953-12.537-5.761-25.5-8.348-38.533-.636-3.781-3.926-6.658-7.889-6.658-5.047 0-8.826 4.62-7.847 9.561 2.33 11.749 4.845 23.428 7.476 34.814-7.454 6.431-27.876 22.957-46.84 38.16 7.368-27.657 17.091-70.822 17.091-74.539 0-4.418-3.582-7.995-8-7.995-3.938 0-7.21 2.849-7.876 6.596-16.636 83.933-43.105 167.792-80.216 249.529h-4.847c-4.418 0-8 3.582-8 8s3.582 8 8 8h38c4.418 0 8-3.582 8-8s-3.582-8-8-8h-15.603c3.279-7.346 6.466-14.694 9.537-21.984l138.245-55.938c9.463 26.177 19.989 52.306 31.421 77.922h-15.6c-4.418 0-8 3.582-8 8s3.582 8 8 8h38c4.418 0 8-3.582 8-8s-3.582-8-8-8zm-89.154-194.346c7.277 29.487 15.781 58.859 25.37 87.714l-76.654-46.241c5.872-4.692 44.279-35.652 51.284-41.473zm-94.411 151.663c12.694-31.794 24.041-64.343 33.848-97.102l82.754 49.921z" fill="#585966"/><path d="m220.954 215.882c-11.32-6.57-18.94-18.84-18.94-32.88 0-20.99 17.01-38 38-38s38 17.01 38 38c0 29.287-31.847 47.558-57.06 32.88z" fill="#fe4f60"/><path d="m243.768 164.348c-10.182 3.94-18.472 12.224-22.414 22.413-3.977 10.282-19.171 7.84-19.336-3.184-.317-21.148 16.714-38.575 37.996-38.575 11.908 0 13.949 15.4 3.754 19.346z" fill="#ff6d7a"/></svg>